<svg width="21" height="19" viewBox="0 0 21 19" fill="none" xmlns="http://www.w3.org/2000/svg">
<path fill-rule="evenodd" clip-rule="evenodd" d="M14.7908 12.6818C16.6416 10.5864 17.2176 7.59906 16.0161 4.90657C14.3132 1.0904 9.68427 -0.68842 5.67712 0.933475C1.66998 2.55537 -0.19795 6.96381 1.50498 10.78C3.20791 14.5962 7.83683 16.375 11.8439 14.7531C12.5863 14.4526 13.2551 14.0566 13.8415 13.5864L18.9786 18.4795C19.2408 18.7291 19.666 18.7292 19.9282 18.4795C20.1905 18.2298 20.1905 17.825 19.9282 17.5752L14.7908 12.6818ZM13.4242 12.213C15.2246 10.4688 15.8472 7.79771 14.7802 5.40681C13.3673 2.24067 9.52694 0.764858 6.20235 2.11048C2.87778 3.45611 1.32803 7.11362 2.74088 10.2798C4.15374 13.4459 7.99417 14.9217 11.3188 13.5761C12.098 13.2607 12.7798 12.8183 13.3487 12.285C13.3602 12.272 13.3724 12.2595 13.3852 12.2474C13.3978 12.2353 13.4108 12.2239 13.4242 12.213Z" fill="#555547"/>
</svg>
